<svg xmlns="http://www.w3.org/2000/svg" width="1200" height="720" viewBox="0 0 1200 720" role="img" aria-labelledby="title description">
  <title id="title">Wholesale Order Workbench draft style preview</title>
  <desc id="description">Account-aware order table with SKU search, contract pricing, availability, quantity editing, and a persistent o…</desc>
  <defs>
    <marker id="arrow" viewBox="0 0 10 10" refX="8" refY="5" markerWidth="5" markerHeight="5" orient="auto-start-reverse"><path d="M 0 0 L 10 5 L 0 10 z" fill="#1769AA"/></marker>
    <pattern id="grid" width="24" height="24" patternUnits="userSpaceOnUse"><path d="M 24 0 L 0 0 0 24" fill="none" stroke="#CCD5DB" stroke-width="1" opacity="0.18"/></pattern>
  </defs>
  <rect width="1200" height="720" fill="#F2F5F7"/>
  <rect width="1200" height="720" fill="url(#grid)"/>
  <text x="42" y="45" fill="#687580" font-family="Inter, ui-sans-serif, system-ui, sans-serif" font-size="11" font-weight="750" text-anchor="start">AI UI STYLE DIRECTION</text>
  <text x="1158" y="45" fill="#1769AA" font-family="Inter, ui-sans-serif, system-ui, sans-serif" font-size="11" font-weight="750" text-anchor="end">DRAFT / WIREFRAME</text>
  <text x="42" y="92" fill="#17212B" font-family="Inter, ui-sans-serif, system-ui, sans-serif" font-size="30" font-weight="780" text-anchor="start">Wholesale Order Workbench</text>
  <text x="42" y="124" fill="#687580" font-family="Inter, ui-sans-serif, system-ui, sans-serif" font-size="13" font-weight="450" text-anchor="start">Account-aware order table with SKU search, contract pricing, availability, quantity editing, and a persistent o…</text>
  <g transform="translate(40 160)">
    <rect x="0" y="0" width="1120" height="520" rx="20" fill="#FFFFFF" stroke="#CCD5DB" />
    <rect x="0" y="0" width="210" height="520" rx="0" fill="#E4E9ED" stroke="#CCD5DB" /><text x="26" y="42" fill="#687580" font-family="Inter, ui-sans-serif, system-ui, sans-serif" font-size="11" font-weight="700" text-anchor="start">WORKSPACE</text><rect x="18" y="68" width="174" height="36" rx="8" fill="transparent" stroke="transparent" /><text x="36" y="91" fill="#687580" font-family="Inter, ui-sans-serif, system-ui, sans-serif" font-size="13" font-weight="500" text-anchor="start">Today</text><rect x="18" y="116" width="174" height="36" rx="8" fill="#FFFFFF" stroke="#CCD5DB" /><text x="36" y="139" fill="#17212B" font-family="Inter, ui-sans-serif, system-ui, sans-serif" font-size="13" font-weight="650" text-anchor="start">In review</text><rect x="18" y="164" width="174" height="36" rx="8" fill="transparent" stroke="transparent" /><text x="36" y="187" fill="#687580" font-family="Inter, ui-sans-serif, system-ui, sans-serif" font-size="13" font-weight="500" text-anchor="start">Blocked</text><rect x="18" y="212" width="174" height="36" rx="8" fill="transparent" stroke="transparent" /><text x="36" y="235" fill="#687580" font-family="Inter, ui-sans-serif, system-ui, sans-serif" font-size="13" font-weight="500" text-anchor="start">Completed</text><rect x="240" y="26" width="850" height="56" rx="12" fill="#E4E9ED" stroke="#CCD5DB" /><text x="266" y="61" fill="#17212B" font-family="Inter, ui-sans-serif, system-ui, sans-serif" font-size="16" font-weight="650" text-anchor="start">Operations / Active work</text><rect x="930" y="39" width="134" height="30" rx="15" fill="#E4E9ED" stroke="#CCD5DB" /><text x="997" y="59" fill="#687580" font-family="Inter, ui-sans-serif, system-ui, sans-serif" font-size="11" font-weight="650" text-anchor="middle">NEW TASK</text><rect x="240" y="106" width="258" height="92" rx="12" fill="#E4E9ED" stroke="#CCD5DB" /><text x="258" y="134" fill="#687580" font-family="Inter, ui-sans-serif, system-ui, sans-serif" font-size="11" font-weight="600" text-anchor="start">Active</text><text x="258" y="171" fill="#17212B" font-family="Inter, ui-sans-serif, system-ui, sans-serif" font-size="25" font-weight="720" text-anchor="start">24</text><circle cx="474" cy="130" r="5" fill="#1769AA"/><rect x="520" y="106" width="258" height="92" rx="12" fill="#E4E9ED" stroke="#CCD5DB" /><text x="538" y="134" fill="#687580" font-family="Inter, ui-sans-serif, system-ui, sans-serif" font-size="11" font-weight="600" text-anchor="start">Review</text><text x="538" y="171" fill="#17212B" font-family="Inter, ui-sans-serif, system-ui, sans-serif" font-size="25" font-weight="720" text-anchor="start">08</text><circle cx="754" cy="130" r="5" fill="#1769AA"/><rect x="800" y="106" width="258" height="92" rx="12" fill="#E4E9ED" stroke="#CCD5DB" /><text x="818" y="134" fill="#687580" font-family="Inter, ui-sans-serif, system-ui, sans-serif" font-size="11" font-weight="600" text-anchor="start">SLA risk</text><text x="818" y="171" fill="#17212B" font-family="Inter, ui-sans-serif, system-ui, sans-serif" font-size="25" font-weight="720" text-anchor="start">03</text><circle cx="1034" cy="130" r="5" fill="#1769AA"/><rect x="240" y="220" width="850" height="266" rx="14" fill="#FFFFFF" stroke="#CCD5DB" /><text x="266" y="252" fill="#687580" font-family="Inter, ui-sans-serif, system-ui, sans-serif" font-size="10" font-weight="700" text-anchor="start">TASK</text><text x="730" y="252" fill="#687580" font-family="Inter, ui-sans-serif, system-ui, sans-serif" font-size="10" font-weight="700" text-anchor="start">STATUS</text><line x1="258" y1="274" x2="1072" y2="274" stroke="#CCD5DB" stroke-width="1" /><circle cx="276" cy="295" r="6" fill="#CCD5DB"/><line x1="296" y1="295" x2="570" y2="295" stroke="#687580" stroke-width="7" stroke-linecap="round" opacity="0.55"/><rect x="710" y="280" width="104" height="30" rx="15" fill="#E4E9ED" stroke="#CCD5DB" /><text x="762" y="300" fill="#687580" font-family="Inter, ui-sans-serif, system-ui, sans-serif" font-size="11" font-weight="650" text-anchor="middle">ACTIVE</text><line x1="258" y1="316" x2="1072" y2="316" stroke="#CCD5DB" stroke-width="1" /><circle cx="276" cy="337" r="6" fill="#CCD5DB"/><line x1="296" y1="337" x2="588" y2="337" stroke="#687580" stroke-width="7" stroke-linecap="round" opacity="0.55"/><rect x="710" y="322" width="104" height="30" rx="15" fill="#E4E9ED" stroke="#CCD5DB" /><text x="762" y="342" fill="#687580" font-family="Inter, ui-sans-serif, system-ui, sans-serif" font-size="11" font-weight="650" text-anchor="middle">ACTIVE</text><line x1="258" y1="358" x2="1072" y2="358" stroke="#CCD5DB" stroke-width="1" /><circle cx="276" cy="379" r="6" fill="#1769AA"/><line x1="296" y1="379" x2="606" y2="379" stroke="#687580" stroke-width="7" stroke-linecap="round" opacity="0.55"/><rect x="710" y="364" width="104" height="30" rx="15" fill="#E4E9ED" stroke="#CCD5DB" /><text x="762" y="384" fill="#687580" font-family="Inter, ui-sans-serif, system-ui, sans-serif" font-size="11" font-weight="650" text-anchor="middle">BLOCKED</text><line x1="258" y1="400" x2="1072" y2="400" stroke="#CCD5DB" stroke-width="1" /><circle cx="276" cy="421" r="6" fill="#CCD5DB"/><line x1="296" y1="421" x2="624" y2="421" stroke="#687580" stroke-width="7" stroke-linecap="round" opacity="0.55"/><rect x="710" y="406" width="104" height="30" rx="15" fill="#E4E9ED" stroke="#CCD5DB" /><text x="762" y="426" fill="#687580" font-family="Inter, ui-sans-serif, system-ui, sans-serif" font-size="11" font-weight="650" text-anchor="middle">ACTIVE</text><line x1="258" y1="442" x2="1072" y2="442" stroke="#CCD5DB" stroke-width="1" /><circle cx="276" cy="463" r="6" fill="#CCD5DB"/><line x1="296" y1="463" x2="642" y2="463" stroke="#687580" stroke-width="7" stroke-linecap="round" opacity="0.55"/><rect x="710" y="448" width="104" height="30" rx="15" fill="#E4E9ED" stroke="#CCD5DB" /><text x="762" y="468" fill="#687580" font-family="Inter, ui-sans-serif, system-ui, sans-serif" font-size="11" font-weight="650" text-anchor="middle">ACTIVE</text>
  </g>
</svg>
