<svg xmlns="http://www.w3.org/2000/svg" width="1200" height="720" viewBox="0 0 1200 720" role="img" aria-labelledby="title description">
  <title id="title">Wellness Companion Soft draft style preview</title>
  <desc id="description">Soft daily ritual story with a reassuring promise, human moment, simple progress cue, and low-pressure signup.</desc>
  <defs>
    <marker id="arrow" viewBox="0 0 10 10" refX="8" refY="5" markerWidth="5" markerHeight="5" orient="auto-start-reverse"><path d="M 0 0 L 10 5 L 0 10 z" fill="#7EAA75"/></marker>
    <pattern id="grid" width="24" height="24" patternUnits="userSpaceOnUse"><path d="M 24 0 L 0 0 0 24" fill="none" stroke="#DADFCF" stroke-width="1" opacity="0.18"/></pattern>
  </defs>
  <rect width="1200" height="720" fill="#FFF8EF"/>
  <rect width="1200" height="720" fill="url(#grid)"/>
  <text x="42" y="45" fill="#747B6E" font-family="Inter, ui-sans-serif, system-ui, sans-serif" font-size="11" font-weight="750" text-anchor="start">AI UI STYLE DIRECTION</text>
  <text x="1158" y="45" fill="#7EAA75" font-family="Inter, ui-sans-serif, system-ui, sans-serif" font-size="11" font-weight="750" text-anchor="end">DRAFT / WIREFRAME</text>
  <text x="42" y="92" fill="#2D3328" font-family="Inter, ui-sans-serif, system-ui, sans-serif" font-size="30" font-weight="780" text-anchor="start">Wellness Companion Soft</text>
  <text x="42" y="124" fill="#747B6E" font-family="Inter, ui-sans-serif, system-ui, sans-serif" font-size="13" font-weight="450" text-anchor="start">Soft daily ritual story with a reassuring promise, human moment, simple progress cue, and low-pressure signup.</text>
  <g transform="translate(40 160)">
    <rect x="0" y="0" width="1120" height="520" rx="20" fill="#FFFCF7" stroke="#DADFCF" />
    <text x="42" y="58" fill="#2D3328" font-family="Inter, ui-sans-serif, system-ui, sans-serif" font-size="30" font-weight="750" text-anchor="start">A human story</text><text x="42" y="94" fill="#2D3328" font-family="Inter, ui-sans-serif, system-ui, sans-serif" font-size="30" font-weight="750" text-anchor="start">with a clear action.</text><text x="42" y="128" fill="#747B6E" font-family="Inter, ui-sans-serif, system-ui, sans-serif" font-size="13" font-weight="450" text-anchor="start">Warm rhythm and memorable moments.</text><rect x="42" y="158" width="122" height="30" rx="15" fill="#E9F0DF" stroke="#DADFCF" /><text x="103" y="178" fill="#747B6E" font-family="Inter, ui-sans-serif, system-ui, sans-serif" font-size="11" font-weight="650" text-anchor="middle">EXPLORE</text><rect x="42" y="230" width="460" height="240" rx="28" fill="#E9F0DF" stroke="#DADFCF" /><circle cx="230" cy="336" r="78" fill="#7EAA75" opacity="0.34"/><path d="M42 410 Q180 308 502 396 L502 470 L42 470 Z" fill="#7EAA75" opacity="0.65"/><rect x="536" y="38" width="542" height="194" rx="22" fill="#FFFCF7" stroke="#DADFCF" /><circle cx="936" cy="124" r="70" fill="#7EAA75" opacity="0.2"/><text x="570" y="92" fill="#747B6E" font-family="Inter, ui-sans-serif, system-ui, sans-serif" font-size="11" font-weight="700" text-anchor="start">STORY CHAPTER 01</text><line x1="570" y1="126" x2="850" y2="126" stroke="#2D3328" stroke-width="12" stroke-linecap="round" opacity="0.75"/><line x1="570" y1="158" x2="790" y2="158" stroke="#747B6E" stroke-width="7" stroke-linecap="round" opacity="0.5"/><rect x="536" y="258" width="260" height="212" rx="22" fill="#E9F0DF" stroke="#DADFCF" /><text x="562" y="426" fill="#747B6E" font-family="Inter, ui-sans-serif, system-ui, sans-serif" font-size="11" font-weight="700" text-anchor="start">PRODUCT MOMENT</text><rect x="812" y="258" width="260" height="212" rx="22" fill="#7EAA75" stroke="#DADFCF" opacity="0.82"/><text x="838" y="426" fill="#FFFCF7" font-family="Inter, ui-sans-serif, system-ui, sans-serif" font-size="11" font-weight="700" text-anchor="start">COMMUNITY</text>
  </g>
</svg>
