<svg xmlns="http://www.w3.org/2000/svg" width="1200" height="720" viewBox="0 0 1200 720" role="img" aria-labelledby="title description">
  <title id="title">Data Dashboard Command Center draft style preview</title>
  <desc id="description">Dense but ordered shell with metric summary, chart, table, filters, and selected state.</desc>
  <defs>
    <marker id="arrow" viewBox="0 0 10 10" refX="8" refY="5" markerWidth="5" markerHeight="5" orient="auto-start-reverse"><path d="M 0 0 L 10 5 L 0 10 z" fill="#22C55E"/></marker>
    <pattern id="grid" width="24" height="24" patternUnits="userSpaceOnUse"><path d="M 24 0 L 0 0 0 24" fill="none" stroke="#233A4D" stroke-width="1" opacity="0.18"/></pattern>
  </defs>
  <rect width="1200" height="720" fill="#081018"/>
  <rect width="1200" height="720" fill="url(#grid)"/>
  <text x="42" y="45" fill="#7F95AA" font-family="Inter, ui-sans-serif, system-ui, sans-serif" font-size="11" font-weight="750" text-anchor="start">AI UI STYLE DIRECTION</text>
  <text x="1158" y="45" fill="#22C55E" font-family="Inter, ui-sans-serif, system-ui, sans-serif" font-size="11" font-weight="750" text-anchor="end">DRAFT / WIREFRAME</text>
  <text x="42" y="92" fill="#E6F1FF" font-family="Inter, ui-sans-serif, system-ui, sans-serif" font-size="30" font-weight="780" text-anchor="start">Data Dashboard Command Center</text>
  <text x="42" y="124" fill="#7F95AA" font-family="Inter, ui-sans-serif, system-ui, sans-serif" font-size="13" font-weight="450" text-anchor="start">Dense but ordered shell with metric summary, chart, table, filters, and selected state.</text>
  <g transform="translate(40 160)">
    <rect x="0" y="0" width="1120" height="520" rx="20" fill="#0E1925" stroke="#233A4D" />
    <rect x="22" y="22" width="248" height="92" rx="12" fill="#152536" stroke="#233A4D" /><text x="40" y="50" fill="#7F95AA" font-family="Inter, ui-sans-serif, system-ui, sans-serif" font-size="11" font-weight="600" text-anchor="start">Revenue</text><text x="40" y="87" fill="#E6F1FF" font-family="Inter, ui-sans-serif, system-ui, sans-serif" font-size="25" font-weight="720" text-anchor="start">$82.4K</text><circle cx="246" cy="46" r="5" fill="#22C55E"/><rect x="292" y="22" width="248" height="92" rx="12" fill="#152536" stroke="#233A4D" /><text x="310" y="50" fill="#7F95AA" font-family="Inter, ui-sans-serif, system-ui, sans-serif" font-size="11" font-weight="600" text-anchor="start">Latency</text><text x="310" y="87" fill="#E6F1FF" font-family="Inter, ui-sans-serif, system-ui, sans-serif" font-size="25" font-weight="720" text-anchor="start">184ms</text><circle cx="516" cy="46" r="5" fill="#22C55E"/><rect x="562" y="22" width="248" height="92" rx="12" fill="#152536" stroke="#233A4D" /><text x="580" y="50" fill="#7F95AA" font-family="Inter, ui-sans-serif, system-ui, sans-serif" font-size="11" font-weight="600" text-anchor="start">Alerts</text><text x="580" y="87" fill="#E6F1FF" font-family="Inter, ui-sans-serif, system-ui, sans-serif" font-size="25" font-weight="720" text-anchor="start">07</text><circle cx="786" cy="46" r="5" fill="#22C55E"/><rect x="832" y="22" width="248" height="92" rx="12" fill="#152536" stroke="#233A4D" /><text x="850" y="50" fill="#7F95AA" font-family="Inter, ui-sans-serif, system-ui, sans-serif" font-size="11" font-weight="600" text-anchor="start">Coverage</text><text x="850" y="87" fill="#E6F1FF" font-family="Inter, ui-sans-serif, system-ui, sans-serif" font-size="25" font-weight="720" text-anchor="start">96.2%</text><circle cx="1056" cy="46" r="5" fill="#22C55E"/><rect x="22" y="136" width="660" height="348" rx="14" fill="#152536" stroke="#233A4D" /><text x="48" y="170" fill="#7F95AA" font-family="Inter, ui-sans-serif, system-ui, sans-serif" font-size="11" font-weight="700" text-anchor="start">PERFORMANCE</text><line x1="52" y1="428" x2="650" y2="428" stroke="#233A4D" stroke-width="2" /><rect x="66" y="352" width="34" height="76" rx="7" fill="#233A4D" stroke="none" /><rect x="134" y="310" width="34" height="118" rx="7" fill="#233A4D" stroke="none" /><rect x="202" y="336" width="34" height="92" rx="7" fill="#233A4D" stroke="none" /><rect x="270" y="278" width="34" height="150" rx="7" fill="#233A4D" stroke="none" /><rect x="338" y="300" width="34" height="128" rx="7" fill="#233A4D" stroke="none" /><rect x="406" y="252" width="34" height="176" rx="7" fill="#233A4D" stroke="none" /><rect x="474" y="286" width="34" height="142" rx="7" fill="#233A4D" stroke="none" /><rect x="542" y="230" width="34" height="198" rx="7" fill="#22C55E" stroke="none" /><rect x="710" y="136" width="388" height="348" rx="14" fill="#0E1925" stroke="#233A4D" /><text x="736" y="170" fill="#7F95AA" font-family="Inter, ui-sans-serif, system-ui, sans-serif" font-size="11" font-weight="700" text-anchor="start">LIVE EVENTS</text><line x1="730" y1="202" x2="1078" y2="202" stroke="#233A4D" stroke-width="2" /><circle cx="748" cy="228" r="6" fill="#22C55E"/><line x1="770" y1="228" x2="938" y2="228" stroke="#7F95AA" stroke-width="7" stroke-linecap="round" opacity="0.55"/><line x1="730" y1="254" x2="1078" y2="254" stroke="#233A4D" stroke-width="2" /><circle cx="748" cy="280" r="6" fill="#22C55E"/><line x1="770" y1="280" x2="988" y2="280" stroke="#7F95AA" stroke-width="7" stroke-linecap="round" opacity="0.55"/><line x1="730" y1="306" x2="1078" y2="306" stroke="#233A4D" stroke-width="2" /><circle cx="748" cy="332" r="6" fill="#233A4D"/><line x1="770" y1="332" x2="938" y2="332" stroke="#7F95AA" stroke-width="7" stroke-linecap="round" opacity="0.55"/><line x1="730" y1="358" x2="1078" y2="358" stroke="#233A4D" stroke-width="2" /><circle cx="748" cy="384" r="6" fill="#233A4D"/><line x1="770" y1="384" x2="988" y2="384" stroke="#7F95AA" stroke-width="7" stroke-linecap="round" opacity="0.55"/><line x1="730" y1="410" x2="1078" y2="410" stroke="#233A4D" stroke-width="2" /><circle cx="748" cy="436" r="6" fill="#233A4D"/><line x1="770" y1="436" x2="938" y2="436" stroke="#7F95AA" stroke-width="7" stroke-linecap="round" opacity="0.55"/>
  </g>
</svg>
