<svg xmlns="http://www.w3.org/2000/svg" width="1200" height="720" viewBox="0 0 1200 720" role="img" aria-labelledby="title description">
  <title id="title">Developer Dashboard Grid Data draft style preview</title>
  <desc id="description">Use an ordered metric and workflow grid with visible operational state. Keep metrics, trends, and decision sign…</desc>
  <defs>
    <marker id="arrow" viewBox="0 0 10 10" refX="8" refY="5" markerWidth="5" markerHeight="5" orient="auto-start-reverse"><path d="M 0 0 L 10 5 L 0 10 z" fill="#66CC8A"/></marker>
    <pattern id="grid" width="24" height="24" patternUnits="userSpaceOnUse"><path d="M 24 0 L 0 0 0 24" fill="none" stroke="#D1D1D1" stroke-width="1" opacity="0.18"/></pattern>
  </defs>
  <rect width="1200" height="720" fill="#FFFFFF"/>
  <rect width="1200" height="720" fill="url(#grid)"/>
  <text x="42" y="45" fill="#858A94" font-family="Inter, ui-sans-serif, system-ui, sans-serif" font-size="11" font-weight="750" text-anchor="start">AI UI STYLE DIRECTION</text>
  <text x="1158" y="45" fill="#66CC8A" font-family="Inter, ui-sans-serif, system-ui, sans-serif" font-size="11" font-weight="750" text-anchor="end">DRAFT / WIREFRAME</text>
  <text x="42" y="92" fill="#333C4D" font-family="Inter, ui-sans-serif, system-ui, sans-serif" font-size="30" font-weight="780" text-anchor="start">Developer Dashboard Grid Data</text>
  <text x="42" y="124" fill="#858A94" font-family="Inter, ui-sans-serif, system-ui, sans-serif" font-size="13" font-weight="450" text-anchor="start">Use an ordered metric and workflow grid with visible operational state. Keep metrics, trends, and decision sign…</text>
  <g transform="translate(40 160)">
    <rect x="0" y="0" width="1120" height="520" rx="20" fill="#E8E8E8" stroke="#D1D1D1" />
    <rect x="22" y="22" width="248" height="92" rx="12" fill="#D1D1D1" stroke="#D1D1D1" /><text x="40" y="50" fill="#858A94" font-family="Inter, ui-sans-serif, system-ui, sans-serif" font-size="11" font-weight="600" text-anchor="start">Revenue</text><text x="40" y="87" fill="#333C4D" font-family="Inter, ui-sans-serif, system-ui, sans-serif" font-size="25" font-weight="720" text-anchor="start">$82.4K</text><circle cx="246" cy="46" r="5" fill="#66CC8A"/><rect x="292" y="22" width="248" height="92" rx="12" fill="#D1D1D1" stroke="#D1D1D1" /><text x="310" y="50" fill="#858A94" font-family="Inter, ui-sans-serif, system-ui, sans-serif" font-size="11" font-weight="600" text-anchor="start">Latency</text><text x="310" y="87" fill="#333C4D" font-family="Inter, ui-sans-serif, system-ui, sans-serif" font-size="25" font-weight="720" text-anchor="start">184ms</text><circle cx="516" cy="46" r="5" fill="#66CC8A"/><rect x="562" y="22" width="248" height="92" rx="12" fill="#D1D1D1" stroke="#D1D1D1" /><text x="580" y="50" fill="#858A94" font-family="Inter, ui-sans-serif, system-ui, sans-serif" font-size="11" font-weight="600" text-anchor="start">Alerts</text><text x="580" y="87" fill="#333C4D" font-family="Inter, ui-sans-serif, system-ui, sans-serif" font-size="25" font-weight="720" text-anchor="start">07</text><circle cx="786" cy="46" r="5" fill="#66CC8A"/><rect x="832" y="22" width="248" height="92" rx="12" fill="#D1D1D1" stroke="#D1D1D1" /><text x="850" y="50" fill="#858A94" font-family="Inter, ui-sans-serif, system-ui, sans-serif" font-size="11" font-weight="600" text-anchor="start">Coverage</text><text x="850" y="87" fill="#333C4D" font-family="Inter, ui-sans-serif, system-ui, sans-serif" font-size="25" font-weight="720" text-anchor="start">96.2%</text><circle cx="1056" cy="46" r="5" fill="#66CC8A"/><rect x="22" y="136" width="660" height="348" rx="14" fill="#D1D1D1" stroke="#D1D1D1" /><text x="48" y="170" fill="#858A94" font-family="Inter, ui-sans-serif, system-ui, sans-serif" font-size="11" font-weight="700" text-anchor="start">PERFORMANCE</text><line x1="52" y1="428" x2="650" y2="428" stroke="#D1D1D1" stroke-width="2" /><rect x="66" y="352" width="34" height="76" rx="7" fill="#D1D1D1" stroke="none" /><rect x="134" y="310" width="34" height="118" rx="7" fill="#D1D1D1" stroke="none" /><rect x="202" y="336" width="34" height="92" rx="7" fill="#D1D1D1" stroke="none" /><rect x="270" y="278" width="34" height="150" rx="7" fill="#D1D1D1" stroke="none" /><rect x="338" y="300" width="34" height="128" rx="7" fill="#D1D1D1" stroke="none" /><rect x="406" y="252" width="34" height="176" rx="7" fill="#D1D1D1" stroke="none" /><rect x="474" y="286" width="34" height="142" rx="7" fill="#D1D1D1" stroke="none" /><rect x="542" y="230" width="34" height="198" rx="7" fill="#66CC8A" stroke="none" /><rect x="710" y="136" width="388" height="348" rx="14" fill="#E8E8E8" stroke="#D1D1D1" /><text x="736" y="170" fill="#858A94" font-family="Inter, ui-sans-serif, system-ui, sans-serif" font-size="11" font-weight="700" text-anchor="start">LIVE EVENTS</text><line x1="730" y1="202" x2="1078" y2="202" stroke="#D1D1D1" stroke-width="2" /><circle cx="748" cy="228" r="6" fill="#66CC8A"/><line x1="770" y1="228" x2="938" y2="228" stroke="#858A94" stroke-width="7" stroke-linecap="round" opacity="0.55"/><line x1="730" y1="254" x2="1078" y2="254" stroke="#D1D1D1" stroke-width="2" /><circle cx="748" cy="280" r="6" fill="#66CC8A"/><line x1="770" y1="280" x2="988" y2="280" stroke="#858A94" stroke-width="7" stroke-linecap="round" opacity="0.55"/><line x1="730" y1="306" x2="1078" y2="306" stroke="#D1D1D1" stroke-width="2" /><circle cx="748" cy="332" r="6" fill="#D1D1D1"/><line x1="770" y1="332" x2="938" y2="332" stroke="#858A94" stroke-width="7" stroke-linecap="round" opacity="0.55"/><line x1="730" y1="358" x2="1078" y2="358" stroke="#D1D1D1" stroke-width="2" /><circle cx="748" cy="384" r="6" fill="#D1D1D1"/><line x1="770" y1="384" x2="988" y2="384" stroke="#858A94" stroke-width="7" stroke-linecap="round" opacity="0.55"/><line x1="730" y1="410" x2="1078" y2="410" stroke="#D1D1D1" stroke-width="2" /><circle cx="748" cy="436" r="6" fill="#D1D1D1"/><line x1="770" y1="436" x2="938" y2="436" stroke="#858A94" stroke-width="7" stroke-linecap="round" opacity="0.55"/>
  </g>
</svg>
