<svg xmlns="http://www.w3.org/2000/svg" width="1200" height="720" viewBox="0 0 1200 720" role="img" aria-labelledby="title description">
  <title id="title">Cohort Learning Workspace draft style preview</title>
  <desc id="description">Learning workspace with current module, cohort activity, assignment queue, instructor feedback, and visible sha…</desc>
  <defs>
    <marker id="arrow" viewBox="0 0 10 10" refX="8" refY="5" markerWidth="5" markerHeight="5" orient="auto-start-reverse"><path d="M 0 0 L 10 5 L 0 10 z" fill="#3B6FD8"/></marker>
    <pattern id="grid" width="24" height="24" patternUnits="userSpaceOnUse"><path d="M 24 0 L 0 0 0 24" fill="none" stroke="#D1D9E8" stroke-width="1" opacity="0.18"/></pattern>
  </defs>
  <rect width="1200" height="720" fill="#F6F8FC"/>
  <rect width="1200" height="720" fill="url(#grid)"/>
  <text x="42" y="45" fill="#6D7890" font-family="Inter, ui-sans-serif, system-ui, sans-serif" font-size="11" font-weight="750" text-anchor="start">AI UI STYLE DIRECTION</text>
  <text x="1158" y="45" fill="#3B6FD8" font-family="Inter, ui-sans-serif, system-ui, sans-serif" font-size="11" font-weight="750" text-anchor="end">DRAFT / WIREFRAME</text>
  <text x="42" y="92" fill="#1E2A44" font-family="Inter, ui-sans-serif, system-ui, sans-serif" font-size="30" font-weight="780" text-anchor="start">Cohort Learning Workspace</text>
  <text x="42" y="124" fill="#6D7890" font-family="Inter, ui-sans-serif, system-ui, sans-serif" font-size="13" font-weight="450" text-anchor="start">Learning workspace with current module, cohort activity, assignment queue, instructor feedback, and visible sha…</text>
  <g transform="translate(40 160)">
    <rect x="0" y="0" width="1120" height="520" rx="20" fill="#FFFFFF" stroke="#D1D9E8" />
    <rect x="0" y="0" width="210" height="520" rx="0" fill="#E8EDF6" stroke="#D1D9E8" /><text x="26" y="42" fill="#6D7890" font-family="Inter, ui-sans-serif, system-ui, sans-serif" font-size="11" font-weight="700" text-anchor="start">WORKSPACE</text><rect x="18" y="68" width="174" height="36" rx="8" fill="transparent" stroke="transparent" /><text x="36" y="91" fill="#6D7890" font-family="Inter, ui-sans-serif, system-ui, sans-serif" font-size="13" font-weight="500" text-anchor="start">Today</text><rect x="18" y="116" width="174" height="36" rx="8" fill="#FFFFFF" stroke="#D1D9E8" /><text x="36" y="139" fill="#1E2A44" font-family="Inter, ui-sans-serif, system-ui, sans-serif" font-size="13" font-weight="650" text-anchor="start">In review</text><rect x="18" y="164" width="174" height="36" rx="8" fill="transparent" stroke="transparent" /><text x="36" y="187" fill="#6D7890" font-family="Inter, ui-sans-serif, system-ui, sans-serif" font-size="13" font-weight="500" text-anchor="start">Blocked</text><rect x="18" y="212" width="174" height="36" rx="8" fill="transparent" stroke="transparent" /><text x="36" y="235" fill="#6D7890" font-family="Inter, ui-sans-serif, system-ui, sans-serif" font-size="13" font-weight="500" text-anchor="start">Completed</text><rect x="240" y="26" width="850" height="56" rx="12" fill="#E8EDF6" stroke="#D1D9E8" /><text x="266" y="61" fill="#1E2A44" font-family="Inter, ui-sans-serif, system-ui, sans-serif" font-size="16" font-weight="650" text-anchor="start">Operations / Active work</text><rect x="930" y="39" width="134" height="30" rx="15" fill="#E8EDF6" stroke="#D1D9E8" /><text x="997" y="59" fill="#6D7890" font-family="Inter, ui-sans-serif, system-ui, sans-serif" font-size="11" font-weight="650" text-anchor="middle">NEW TASK</text><rect x="240" y="106" width="258" height="92" rx="12" fill="#E8EDF6" stroke="#D1D9E8" /><text x="258" y="134" fill="#6D7890" font-family="Inter, ui-sans-serif, system-ui, sans-serif" font-size="11" font-weight="600" text-anchor="start">Active</text><text x="258" y="171" fill="#1E2A44" font-family="Inter, ui-sans-serif, system-ui, sans-serif" font-size="25" font-weight="720" text-anchor="start">24</text><circle cx="474" cy="130" r="5" fill="#3B6FD8"/><rect x="520" y="106" width="258" height="92" rx="12" fill="#E8EDF6" stroke="#D1D9E8" /><text x="538" y="134" fill="#6D7890" font-family="Inter, ui-sans-serif, system-ui, sans-serif" font-size="11" font-weight="600" text-anchor="start">Review</text><text x="538" y="171" fill="#1E2A44" font-family="Inter, ui-sans-serif, system-ui, sans-serif" font-size="25" font-weight="720" text-anchor="start">08</text><circle cx="754" cy="130" r="5" fill="#3B6FD8"/><rect x="800" y="106" width="258" height="92" rx="12" fill="#E8EDF6" stroke="#D1D9E8" /><text x="818" y="134" fill="#6D7890" font-family="Inter, ui-sans-serif, system-ui, sans-serif" font-size="11" font-weight="600" text-anchor="start">SLA risk</text><text x="818" y="171" fill="#1E2A44" font-family="Inter, ui-sans-serif, system-ui, sans-serif" font-size="25" font-weight="720" text-anchor="start">03</text><circle cx="1034" cy="130" r="5" fill="#3B6FD8"/><rect x="240" y="220" width="850" height="266" rx="14" fill="#FFFFFF" stroke="#D1D9E8" /><text x="266" y="252" fill="#6D7890" font-family="Inter, ui-sans-serif, system-ui, sans-serif" font-size="10" font-weight="700" text-anchor="start">TASK</text><text x="730" y="252" fill="#6D7890" font-family="Inter, ui-sans-serif, system-ui, sans-serif" font-size="10" font-weight="700" text-anchor="start">STATUS</text><line x1="258" y1="274" x2="1072" y2="274" stroke="#D1D9E8" stroke-width="1" /><circle cx="276" cy="295" r="6" fill="#D1D9E8"/><line x1="296" y1="295" x2="570" y2="295" stroke="#6D7890" stroke-width="7" stroke-linecap="round" opacity="0.55"/><rect x="710" y="280" width="104" height="30" rx="15" fill="#E8EDF6" stroke="#D1D9E8" /><text x="762" y="300" fill="#6D7890" font-family="Inter, ui-sans-serif, system-ui, sans-serif" font-size="11" font-weight="650" text-anchor="middle">ACTIVE</text><line x1="258" y1="316" x2="1072" y2="316" stroke="#D1D9E8" stroke-width="1" /><circle cx="276" cy="337" r="6" fill="#D1D9E8"/><line x1="296" y1="337" x2="588" y2="337" stroke="#6D7890" stroke-width="7" stroke-linecap="round" opacity="0.55"/><rect x="710" y="322" width="104" height="30" rx="15" fill="#E8EDF6" stroke="#D1D9E8" /><text x="762" y="342" fill="#6D7890" font-family="Inter, ui-sans-serif, system-ui, sans-serif" font-size="11" font-weight="650" text-anchor="middle">ACTIVE</text><line x1="258" y1="358" x2="1072" y2="358" stroke="#D1D9E8" stroke-width="1" /><circle cx="276" cy="379" r="6" fill="#3B6FD8"/><line x1="296" y1="379" x2="606" y2="379" stroke="#6D7890" stroke-width="7" stroke-linecap="round" opacity="0.55"/><rect x="710" y="364" width="104" height="30" rx="15" fill="#E8EDF6" stroke="#D1D9E8" /><text x="762" y="384" fill="#6D7890" font-family="Inter, ui-sans-serif, system-ui, sans-serif" font-size="11" font-weight="650" text-anchor="middle">BLOCKED</text><line x1="258" y1="400" x2="1072" y2="400" stroke="#D1D9E8" stroke-width="1" /><circle cx="276" cy="421" r="6" fill="#D1D9E8"/><line x1="296" y1="421" x2="624" y2="421" stroke="#6D7890" stroke-width="7" stroke-linecap="round" opacity="0.55"/><rect x="710" y="406" width="104" height="30" rx="15" fill="#E8EDF6" stroke="#D1D9E8" /><text x="762" y="426" fill="#6D7890" font-family="Inter, ui-sans-serif, system-ui, sans-serif" font-size="11" font-weight="650" text-anchor="middle">ACTIVE</text><line x1="258" y1="442" x2="1072" y2="442" stroke="#D1D9E8" stroke-width="1" /><circle cx="276" cy="463" r="6" fill="#D1D9E8"/><line x1="296" y1="463" x2="642" y2="463" stroke="#6D7890" stroke-width="7" stroke-linecap="round" opacity="0.55"/><rect x="710" y="448" width="104" height="30" rx="15" fill="#E8EDF6" stroke="#D1D9E8" /><text x="762" y="468" fill="#6D7890" font-family="Inter, ui-sans-serif, system-ui, sans-serif" font-size="11" font-weight="650" text-anchor="middle">ACTIVE</text>
  </g>
</svg>
