<svg xmlns="http://www.w3.org/2000/svg" width="1200" height="720" viewBox="0 0 1200 720" role="img" aria-labelledby="title description">
  <title id="title">Enterprise Dashboard Grid Data draft style preview</title>
  <desc id="description">Use an ordered metric and workflow grid with visible operational state. Keep metrics, trends, and decision sign…</desc>
  <defs>
    <marker id="arrow" viewBox="0 0 10 10" refX="8" refY="5" markerWidth="5" markerHeight="5" orient="auto-start-reverse"><path d="M 0 0 L 10 5 L 0 10 z" fill="#0082C4"/></marker>
    <pattern id="grid" width="24" height="24" patternUnits="userSpaceOnUse"><path d="M 24 0 L 0 0 0 24" fill="none" stroke="#D1D1D1" stroke-width="1" opacity="0.18"/></pattern>
  </defs>
  <rect width="1200" height="720" fill="#FFFFFF"/>
  <rect width="1200" height="720" fill="url(#grid)"/>
  <text x="42" y="45" fill="#74767F" font-family="Inter, ui-sans-serif, system-ui, sans-serif" font-size="11" font-weight="750" text-anchor="start">AI UI STYLE DIRECTION</text>
  <text x="1158" y="45" fill="#0082C4" font-family="Inter, ui-sans-serif, system-ui, sans-serif" font-size="11" font-weight="750" text-anchor="end">DRAFT / WIREFRAME</text>
  <text x="42" y="92" fill="#181A2A" font-family="Inter, ui-sans-serif, system-ui, sans-serif" font-size="30" font-weight="780" text-anchor="start">Enterprise Dashboard Grid Data</text>
  <text x="42" y="124" fill="#74767F" font-family="Inter, ui-sans-serif, system-ui, sans-serif" font-size="13" font-weight="450" text-anchor="start">Use an ordered metric and workflow grid with visible operational state. Keep metrics, trends, and decision sign…</text>
  <g transform="translate(40 160)">
    <rect x="0" y="0" width="1120" height="520" rx="20" fill="#E8E8E8" stroke="#D1D1D1" />
    <text x="40" y="58" fill="#181A2A" font-family="Inter, ui-sans-serif, system-ui, sans-serif" font-size="29" font-weight="740" text-anchor="start">Trusted operations,</text><text x="40" y="94" fill="#181A2A" font-family="Inter, ui-sans-serif, system-ui, sans-serif" font-size="29" font-weight="740" text-anchor="start">clearly explained.</text><text x="40" y="128" fill="#74767F" font-family="Inter, ui-sans-serif, system-ui, sans-serif" font-size="13" font-weight="450" text-anchor="start">Proof and governance before decoration.</text><rect x="40" y="158" width="138" height="30" rx="15" fill="#D1D1D1" stroke="#D1D1D1" /><text x="109" y="178" fill="#74767F" font-family="Inter, ui-sans-serif, system-ui, sans-serif" font-size="11" font-weight="650" text-anchor="middle">BOOK A DEMO</text><rect x="40" y="232" width="340" height="178" rx="14" fill="#D1D1D1" stroke="#D1D1D1" /><text x="64" y="266" fill="#74767F" font-family="Inter, ui-sans-serif, system-ui, sans-serif" font-size="11" font-weight="700" text-anchor="start">TRUST SIGNALS</text><rect x="64" y="300" width="72" height="72" rx="12" fill="#E8E8E8" stroke="#D1D1D1" /><circle cx="100" cy="336" r="12" fill="#D1D1D1"/><rect x="156" y="300" width="72" height="72" rx="12" fill="#E8E8E8" stroke="#D1D1D1" /><circle cx="192" cy="336" r="12" fill="#0082C4"/><rect x="248" y="300" width="72" height="72" rx="12" fill="#E8E8E8" stroke="#D1D1D1" /><circle cx="284" cy="336" r="12" fill="#D1D1D1"/><rect x="430" y="40" width="648" height="350" rx="16" fill="#E8E8E8" stroke="#D1D1D1" /><text x="458" y="76" fill="#74767F" font-family="Inter, ui-sans-serif, system-ui, sans-serif" font-size="11" font-weight="700" text-anchor="start">GOVERNED WORKFLOW</text><rect x="470" y="156" width="148" height="90" rx="12" fill="#D1D1D1" stroke="#D1D1D1" /><text x="544" y="207" fill="#181A2A" font-family="Inter, ui-sans-serif, system-ui, sans-serif" font-size="12" font-weight="700" text-anchor="middle">INPUT</text><line x1="618" y1="201" x2="660" y2="201" stroke="#0082C4" stroke-width="3" marker-end="url(#arrow)"/><rect x="660" y="156" width="148" height="90" rx="12" fill="#D1D1D1" stroke="#D1D1D1" /><text x="734" y="207" fill="#0082C4" font-family="Inter, ui-sans-serif, system-ui, sans-serif" font-size="12" font-weight="700" text-anchor="middle">POLICY</text><line x1="808" y1="201" x2="850" y2="201" stroke="#0082C4" stroke-width="3" marker-end="url(#arrow)"/><rect x="850" y="156" width="148" height="90" rx="12" fill="#D1D1D1" stroke="#D1D1D1" /><text x="924" y="207" fill="#181A2A" font-family="Inter, ui-sans-serif, system-ui, sans-serif" font-size="12" font-weight="700" text-anchor="middle">OUTPUT</text><rect x="430" y="418" width="208" height="68" rx="12" fill="#D1D1D1" stroke="#D1D1D1" /><rect x="650" y="418" width="208" height="68" rx="12" fill="#D1D1D1" stroke="#D1D1D1" /><rect x="870" y="418" width="208" height="68" rx="12" fill="#D1D1D1" stroke="#D1D1D1" /><text x="450" y="458" fill="#74767F" font-family="Inter, ui-sans-serif, system-ui, sans-serif" font-size="11" font-weight="700" text-anchor="start">SECURITY</text><text x="670" y="458" fill="#74767F" font-family="Inter, ui-sans-serif, system-ui, sans-serif" font-size="11" font-weight="700" text-anchor="start">AUDIT</text><text x="890" y="458" fill="#74767F" font-family="Inter, ui-sans-serif, system-ui, sans-serif" font-size="11" font-weight="700" text-anchor="start">RELIABILITY</text>
  </g>
</svg>
