<svg xmlns="http://www.w3.org/2000/svg" width="1200" height="720" viewBox="0 0 1200 720" role="img" aria-labelledby="title description">
  <title id="title">Investment Research Terminal draft style preview</title>
  <desc id="description">Research terminal with market context, thesis note, comparative chart, catalysts, risks, and linked source evid…</desc>
  <defs>
    <marker id="arrow" viewBox="0 0 10 10" refX="8" refY="5" markerWidth="5" markerHeight="5" orient="auto-start-reverse"><path d="M 0 0 L 10 5 L 0 10 z" fill="#EAB308"/></marker>
    <pattern id="grid" width="24" height="24" patternUnits="userSpaceOnUse"><path d="M 24 0 L 0 0 0 24" fill="none" stroke="#2C3440" stroke-width="1" opacity="0.18"/></pattern>
  </defs>
  <rect width="1200" height="720" fill="#07090D"/>
  <rect width="1200" height="720" fill="url(#grid)"/>
  <text x="42" y="45" fill="#96978F" font-family="Inter, ui-sans-serif, system-ui, sans-serif" font-size="11" font-weight="750" text-anchor="start">AI UI STYLE DIRECTION</text>
  <text x="1158" y="45" fill="#EAB308" font-family="Inter, ui-sans-serif, system-ui, sans-serif" font-size="11" font-weight="750" text-anchor="end">DRAFT / WIREFRAME</text>
  <text x="42" y="92" fill="#F5F3E8" font-family="Inter, ui-sans-serif, system-ui, sans-serif" font-size="30" font-weight="780" text-anchor="start">Investment Research Terminal</text>
  <text x="42" y="124" fill="#96978F" font-family="Inter, ui-sans-serif, system-ui, sans-serif" font-size="13" font-weight="450" text-anchor="start">Research terminal with market context, thesis note, comparative chart, catalysts, risks, and linked source evid…</text>
  <g transform="translate(40 160)">
    <rect x="0" y="0" width="1120" height="520" rx="20" fill="#0E1219" stroke="#2C3440" />
    <rect x="24" y="24" width="690" height="468" rx="12" fill="#0E1219" stroke="#2C3440" /><text x="52" y="66" fill="#EAB308" font-family="Inter, ui-sans-serif, system-ui, sans-serif" font-size="11" font-weight="700" text-anchor="start">Research note / 024</text><text x="52" y="110" fill="#F5F3E8" font-family="Inter, ui-sans-serif, system-ui, sans-serif" font-size="27" font-weight="750" text-anchor="start">Benchmarking agent reliability</text><line x1="54" y1="148" x2="520" y2="148" stroke="#96978F" stroke-width="7" stroke-linecap="round" opacity="0.42"/><line x1="54" y1="175" x2="606" y2="175" stroke="#96978F" stroke-width="7" stroke-linecap="round" opacity="0.42"/><line x1="54" y1="202" x2="520" y2="202" stroke="#96978F" stroke-width="7" stroke-linecap="round" opacity="0.42"/><line x1="54" y1="229" x2="606" y2="229" stroke="#96978F" stroke-width="7" stroke-linecap="round" opacity="0.42"/><rect x="52" y="282" width="622" height="170" rx="10" fill="#171E29" stroke="#2C3440" /><line x1="84" y1="416" x2="638" y2="416" stroke="#2C3440" stroke-width="2" /><path d="M84 390 C150 372 190 402 252 342 S380 358 444 290 S560 322 638 236" fill="none" stroke="#EAB308" stroke-width="5"/><rect x="744" y="24" width="352" height="226" rx="12" fill="#0B1220" stroke="#2C3440" /><text x="768" y="58" fill="#EAB308" font-family="Inter, ui-sans-serif, system-ui, sans-serif" font-size="11" font-weight="700" text-anchor="start">EXPERIMENT</text><line x1="768" y1="94" x2="930" y2="94" stroke="#EAB308" stroke-width="7" stroke-linecap="round"/><line x1="768" y1="126" x2="954" y2="126" stroke="#475569" stroke-width="7" stroke-linecap="round"/><line x1="768" y1="158" x2="978" y2="158" stroke="#475569" stroke-width="7" stroke-linecap="round"/><line x1="768" y1="190" x2="1002" y2="190" stroke="#475569" stroke-width="7" stroke-linecap="round"/><rect x="744" y="276" width="352" height="216" rx="12" fill="#171E29" stroke="#2C3440" /><text x="768" y="312" fill="#96978F" font-family="Inter, ui-sans-serif, system-ui, sans-serif" font-size="11" font-weight="700" text-anchor="start">RESULT</text><text x="768" y="370" fill="#F5F3E8" font-family="Inter, ui-sans-serif, system-ui, sans-serif" font-size="40" font-weight="780" text-anchor="start">94.8%</text><text x="768" y="404" fill="#96978F" font-family="Inter, ui-sans-serif, system-ui, sans-serif" font-size="13" font-weight="500" text-anchor="start">evaluation pass rate</text>
  </g>
</svg>
