<svg xmlns="http://www.w3.org/2000/svg" width="1200" height="720" viewBox="0 0 1200 720" role="img" aria-labelledby="title description">
  <title id="title">Fintech Precision Trust draft style preview</title>
  <desc id="description">Financial outcome, trust proof, high-quality chart or report preview, controlled CTA.</desc>
  <defs>
    <marker id="arrow" viewBox="0 0 10 10" refX="8" refY="5" markerWidth="5" markerHeight="5" orient="auto-start-reverse"><path d="M 0 0 L 10 5 L 0 10 z" fill="#8B5CF6"/></marker>
    <pattern id="grid" width="24" height="24" patternUnits="userSpaceOnUse"><path d="M 24 0 L 0 0 0 24" fill="none" stroke="#2A3550" stroke-width="1" opacity="0.18"/></pattern>
  </defs>
  <rect width="1200" height="720" fill="#090B14"/>
  <rect width="1200" height="720" fill="url(#grid)"/>
  <text x="42" y="45" fill="#94A3B8" font-family="Inter, ui-sans-serif, system-ui, sans-serif" font-size="11" font-weight="750" text-anchor="start">AI UI STYLE DIRECTION</text>
  <text x="1158" y="45" fill="#8B5CF6" font-family="Inter, ui-sans-serif, system-ui, sans-serif" font-size="11" font-weight="750" text-anchor="end">DRAFT / WIREFRAME</text>
  <text x="42" y="92" fill="#F8FAFC" font-family="Inter, ui-sans-serif, system-ui, sans-serif" font-size="30" font-weight="780" text-anchor="start">Fintech Precision Trust</text>
  <text x="42" y="124" fill="#94A3B8" font-family="Inter, ui-sans-serif, system-ui, sans-serif" font-size="13" font-weight="450" text-anchor="start">Financial outcome, trust proof, high-quality chart or report preview, controlled CTA.</text>
  <g transform="translate(40 160)">
    <rect x="0" y="0" width="1120" height="520" rx="20" fill="#111626" stroke="#2A3550" />
    <rect x="24" y="24" width="336" height="92" rx="12" fill="#1A2238" stroke="#2A3550" /><text x="42" y="52" fill="#94A3B8" font-family="Inter, ui-sans-serif, system-ui, sans-serif" font-size="11" font-weight="600" text-anchor="start">Net position</text><text x="42" y="89" fill="#F8FAFC" font-family="Inter, ui-sans-serif, system-ui, sans-serif" font-size="25" font-weight="720" text-anchor="start">$1.82M</text><circle cx="336" cy="48" r="5" fill="#8B5CF6"/><rect x="384" y="24" width="336" height="92" rx="12" fill="#1A2238" stroke="#2A3550" /><text x="402" y="52" fill="#94A3B8" font-family="Inter, ui-sans-serif, system-ui, sans-serif" font-size="11" font-weight="600" text-anchor="start">Risk score</text><text x="402" y="89" fill="#F8FAFC" font-family="Inter, ui-sans-serif, system-ui, sans-serif" font-size="25" font-weight="720" text-anchor="start">LOW</text><circle cx="696" cy="48" r="5" fill="#8B5CF6"/><rect x="744" y="24" width="336" height="92" rx="12" fill="#1A2238" stroke="#2A3550" /><text x="762" y="52" fill="#94A3B8" font-family="Inter, ui-sans-serif, system-ui, sans-serif" font-size="11" font-weight="600" text-anchor="start">Open alerts</text><text x="762" y="89" fill="#F8FAFC" font-family="Inter, ui-sans-serif, system-ui, sans-serif" font-size="25" font-weight="720" text-anchor="start">04</text><circle cx="1056" cy="48" r="5" fill="#8B5CF6"/><rect x="24" y="142" width="688" height="342" rx="14" fill="#1A2238" stroke="#2A3550" /><text x="50" y="176" fill="#94A3B8" font-family="Inter, ui-sans-serif, system-ui, sans-serif" font-size="11" font-weight="700" text-anchor="start">PORTFOLIO TREND</text><path d="M54 408 C120 390 168 420 234 350 S356 374 416 298 S528 334 664 220" fill="none" stroke="#8B5CF6" stroke-width="6"/><path d="M54 408 C120 390 168 420 234 350 S356 374 416 298 S528 334 664 220 L664 446 L54 446 Z" fill="#8B5CF6" opacity="0.12"/><rect x="740" y="142" width="356" height="342" rx="14" fill="#111626" stroke="#2A3550" /><text x="766" y="176" fill="#94A3B8" font-family="Inter, ui-sans-serif, system-ui, sans-serif" font-size="11" font-weight="700" text-anchor="start">RECENT ACTIVITY</text><line x1="758" y1="206" x2="1076" y2="206" stroke="#2A3550" stroke-width="2" /><circle cx="778" cy="232" r="7" fill="#8B5CF6"/><line x1="802" y1="232" x2="918" y2="232" stroke="#94A3B8" stroke-width="7" stroke-linecap="round" opacity="0.5"/><text x="1052" y="237" fill="#F8FAFC" font-family="Inter, ui-sans-serif, system-ui, sans-serif" font-size="12" font-weight="650" text-anchor="end">$240</text><line x1="758" y1="258" x2="1076" y2="258" stroke="#2A3550" stroke-width="2" /><circle cx="778" cy="284" r="7" fill="#2A3550"/><line x1="802" y1="284" x2="918" y2="284" stroke="#94A3B8" stroke-width="7" stroke-linecap="round" opacity="0.5"/><text x="1052" y="289" fill="#F8FAFC" font-family="Inter, ui-sans-serif, system-ui, sans-serif" font-size="12" font-weight="650" text-anchor="end">+2.4%</text><line x1="758" y1="310" x2="1076" y2="310" stroke="#2A3550" stroke-width="2" /><circle cx="778" cy="336" r="7" fill="#2A3550"/><line x1="802" y1="336" x2="918" y2="336" stroke="#94A3B8" stroke-width="7" stroke-linecap="round" opacity="0.5"/><text x="1052" y="341" fill="#F8FAFC" font-family="Inter, ui-sans-serif, system-ui, sans-serif" font-size="12" font-weight="650" text-anchor="end">$240</text><line x1="758" y1="362" x2="1076" y2="362" stroke="#2A3550" stroke-width="2" /><circle cx="778" cy="388" r="7" fill="#2A3550"/><line x1="802" y1="388" x2="918" y2="388" stroke="#94A3B8" stroke-width="7" stroke-linecap="round" opacity="0.5"/><text x="1052" y="393" fill="#F8FAFC" font-family="Inter, ui-sans-serif, system-ui, sans-serif" font-size="12" font-weight="650" text-anchor="end">+2.4%</text><line x1="758" y1="414" x2="1076" y2="414" stroke="#2A3550" stroke-width="2" /><circle cx="778" cy="440" r="7" fill="#2A3550"/><line x1="802" y1="440" x2="918" y2="440" stroke="#94A3B8" stroke-width="7" stroke-linecap="round" opacity="0.5"/><text x="1052" y="445" fill="#F8FAFC" font-family="Inter, ui-sans-serif, system-ui, sans-serif" font-size="12" font-weight="650" text-anchor="end">$240</text>
  </g>
</svg>
