<svg xmlns="http://www.w3.org/2000/svg" width="1200" height="720" viewBox="0 0 1200 720" role="img" aria-labelledby="title description">
  <title id="title">Launch Centered Hero Story draft style preview</title>
  <desc id="description">Use a centered opening statement followed by one concrete proof surface. Keep narrative progression and memorab…</desc>
  <defs>
    <marker id="arrow" viewBox="0 0 10 10" refX="8" refY="5" markerWidth="5" markerHeight="5" orient="auto-start-reverse"><path d="M 0 0 L 10 5 L 0 10 z" fill="#FF42F4"/></marker>
    <pattern id="grid" width="24" height="24" patternUnits="userSpaceOnUse"><path d="M 24 0 L 0 0 0 24" fill="none" stroke="#E1E1E1" stroke-width="1" opacity="0.18"/></pattern>
  </defs>
  <rect width="1200" height="720" fill="#F8F8F8"/>
  <rect width="1200" height="720" fill="url(#grid)"/>
  <text x="42" y="45" fill="#636363" font-family="Inter, ui-sans-serif, system-ui, sans-serif" font-size="11" font-weight="750" text-anchor="start">AI UI STYLE DIRECTION</text>
  <text x="1158" y="45" fill="#FF42F4" font-family="Inter, ui-sans-serif, system-ui, sans-serif" font-size="11" font-weight="750" text-anchor="end">DRAFT / WIREFRAME</text>
  <text x="42" y="92" fill="#000000" font-family="Inter, ui-sans-serif, system-ui, sans-serif" font-size="30" font-weight="780" text-anchor="start">Launch Centered Hero Story</text>
  <text x="42" y="124" fill="#636363" font-family="Inter, ui-sans-serif, system-ui, sans-serif" font-size="13" font-weight="450" text-anchor="start">Use a centered opening statement followed by one concrete proof surface. Keep narrative progression and memorab…</text>
  <g transform="translate(40 160)">
    <rect x="0" y="0" width="1120" height="520" rx="20" fill="#EEEEEE" stroke="#E1E1E1" />
    <circle cx="890" cy="90" r="250" fill="#FF42F4" opacity="0.16"/><circle cx="930" cy="120" r="150" fill="#FF42F4" opacity="0.12"/><rect x="46" y="42" width="148" height="30" rx="15" fill="#E1E1E1" stroke="#E1E1E1" /><text x="120" y="62" fill="#636363" font-family="Inter, ui-sans-serif, system-ui, sans-serif" font-size="11" font-weight="650" text-anchor="middle">NEW PRODUCT</text><text x="46" y="112" fill="#000000" font-family="Inter, ui-sans-serif, system-ui, sans-serif" font-size="38" font-weight="780" text-anchor="start">Make the launch</text><text x="46" y="154" fill="#FF42F4" font-family="Inter, ui-sans-serif, system-ui, sans-serif" font-size="38" font-weight="780" text-anchor="start">feel like a reveal.</text><text x="46" y="198" fill="#636363" font-family="Inter, ui-sans-serif, system-ui, sans-serif" font-size="14" font-weight="450" text-anchor="start">One visual hook, one proof moment, one clear action.</text><rect x="46" y="232" width="138" height="30" rx="15" fill="#E1E1E1" stroke="#E1E1E1" /><text x="115" y="252" fill="#636363" font-family="Inter, ui-sans-serif, system-ui, sans-serif" font-size="11" font-weight="650" text-anchor="middle">JOIN WAITLIST</text><rect x="420" y="58" width="650" height="390" rx="20" fill="#EEEEEE" stroke="#E1E1E1" transform="rotate(-2 745 253)"/><rect x="454" y="92" width="582" height="320" rx="16" fill="#E1E1E1" stroke="#E1E1E1" /><circle cx="745" cy="252" r="102" fill="#FF42F4" opacity="0.2"/><circle cx="745" cy="252" r="58" fill="#FF42F4" opacity="0.75"/><path d="M727 220 L786 252 L727 284 Z" fill="#000000"/><rect x="46" y="384" width="108" height="64" rx="12" fill="#E1E1E1" stroke="#E1E1E1" /><rect x="172" y="384" width="108" height="64" rx="12" fill="#E1E1E1" stroke="#E1E1E1" /><rect x="298" y="384" width="108" height="64" rx="12" fill="#E1E1E1" stroke="#E1E1E1" />
  </g>
</svg>
