<svg xmlns="http://www.w3.org/2000/svg" width="1200" height="720" viewBox="0 0 1200 720" role="img" aria-labelledby="title description">
  <title id="title">Proof Led Early Access draft style preview</title>
  <desc id="description">Direct launch claim beside a working product proof, a short beta contract, and immediate access or waitlist act…</desc>
  <defs>
    <marker id="arrow" viewBox="0 0 10 10" refX="8" refY="5" markerWidth="5" markerHeight="5" orient="auto-start-reverse"><path d="M 0 0 L 10 5 L 0 10 z" fill="#2563EB"/></marker>
    <pattern id="grid" width="24" height="24" patternUnits="userSpaceOnUse"><path d="M 24 0 L 0 0 0 24" fill="none" stroke="#CFDAEA" stroke-width="1" opacity="0.18"/></pattern>
  </defs>
  <rect width="1200" height="720" fill="#F7FAFF"/>
  <rect width="1200" height="720" fill="url(#grid)"/>
  <text x="42" y="45" fill="#64748B" font-family="Inter, ui-sans-serif, system-ui, sans-serif" font-size="11" font-weight="750" text-anchor="start">AI UI STYLE DIRECTION</text>
  <text x="1158" y="45" fill="#2563EB" font-family="Inter, ui-sans-serif, system-ui, sans-serif" font-size="11" font-weight="750" text-anchor="end">DRAFT / WIREFRAME</text>
  <text x="42" y="92" fill="#111827" font-family="Inter, ui-sans-serif, system-ui, sans-serif" font-size="30" font-weight="780" text-anchor="start">Proof Led Early Access</text>
  <text x="42" y="124" fill="#64748B" font-family="Inter, ui-sans-serif, system-ui, sans-serif" font-size="13" font-weight="450" text-anchor="start">Direct launch claim beside a working product proof, a short beta contract, and immediate access or waitlist act…</text>
  <g transform="translate(40 160)">
    <rect x="0" y="0" width="1120" height="520" rx="20" fill="#FFFFFF" stroke="#CFDAEA" />
    <text x="42" y="62" fill="#111827" font-family="Inter, ui-sans-serif, system-ui, sans-serif" font-size="29" font-weight="720" text-anchor="start">Build with a precise</text><text x="42" y="98" fill="#111827" font-family="Inter, ui-sans-serif, system-ui, sans-serif" font-size="29" font-weight="720" text-anchor="start">product contract.</text><text x="42" y="132" fill="#64748B" font-family="Inter, ui-sans-serif, system-ui, sans-serif" font-size="13" font-weight="450" text-anchor="start">Direct action and visible product proof.</text><rect x="42" y="160" width="124" height="30" rx="15" fill="#E8F0FF" stroke="#CFDAEA" /><text x="104" y="180" fill="#64748B" font-family="Inter, ui-sans-serif, system-ui, sans-serif" font-size="11" font-weight="650" text-anchor="middle">READ DOCS</text><rect x="176" y="160" width="132" height="30" rx="15" fill="#E8F0FF" stroke="#CFDAEA" /><text x="242" y="180" fill="#64748B" font-family="Inter, ui-sans-serif, system-ui, sans-serif" font-size="11" font-weight="650" text-anchor="middle">START BUILD</text><rect x="42" y="230" width="390" height="210" rx="14" fill="#E8F0FF" stroke="#CFDAEA" /><text x="66" y="266" fill="#64748B" font-family="Inter, ui-sans-serif, system-ui, sans-serif" font-size="11" font-weight="650" text-anchor="start">PRODUCT PROOF</text><line x1="66" y1="295" x2="380" y2="295" stroke="#CFDAEA" stroke-width="2" /><rect x="66" y="320" width="235" height="9" rx="5" fill="#2563EB" stroke="none" /><rect x="66" y="347" width="217" height="9" rx="5" fill="#CFDAEA" stroke="none" /><rect x="66" y="374" width="199" height="9" rx="5" fill="#CFDAEA" stroke="none" /><rect x="66" y="401" width="181" height="9" rx="5" fill="#CFDAEA" stroke="none" /><rect x="486" y="40" width="592" height="400" rx="16" fill="#070709" stroke="#CFDAEA" /><circle cx="516" cy="68" r="5" fill="#EF4444"/><circle cx="534" cy="68" r="5" fill="#F59E0B"/><circle cx="552" cy="68" r="5" fill="#22C55E"/><text x="514" y="115" fill="#2563EB" font-family="Inter, ui-sans-serif, system-ui, sans-serif" font-size="15" font-weight="600" text-anchor="start">$ npm run build</text><text x="514" y="154" fill="#64748B" font-family="Inter, ui-sans-serif, system-ui, sans-serif" font-size="13" font-weight="450" text-anchor="start">✓ design contract loaded</text><text x="514" y="184" fill="#64748B" font-family="Inter, ui-sans-serif, system-ui, sans-serif" font-size="13" font-weight="450" text-anchor="start">✓ components mapped</text><text x="514" y="214" fill="#64748B" font-family="Inter, ui-sans-serif, system-ui, sans-serif" font-size="13" font-weight="450" text-anchor="start">✓ visual QA ready</text><rect x="514" y="260" width="520" height="118" rx="10" fill="#FFFFFF" stroke="#CFDAEA" /><line x1="538" y1="294" x2="850" y2="294" stroke="#CFDAEA" stroke-width="8" stroke-linecap="round"/><line x1="538" y1="327" x2="972" y2="327" stroke="#CFDAEA" stroke-width="8" stroke-linecap="round"/>
  </g>
</svg>
