<svg xmlns="http://www.w3.org/2000/svg" width="1200" height="720" viewBox="0 0 1200 720" role="img" aria-labelledby="title description">
  <title id="title">Case Study Narrative draft style preview</title>
  <desc id="description">Editorial case opening with problem, role, constraints, a flagship artifact, and a clear impact summary.</desc>
  <defs>
    <marker id="arrow" viewBox="0 0 10 10" refX="8" refY="5" markerWidth="5" markerHeight="5" orient="auto-start-reverse"><path d="M 0 0 L 10 5 L 0 10 z" fill="#B45309"/></marker>
    <pattern id="grid" width="24" height="24" patternUnits="userSpaceOnUse"><path d="M 24 0 L 0 0 0 24" fill="none" stroke="#D9D1C5" stroke-width="1" opacity="0.18"/></pattern>
  </defs>
  <rect width="1200" height="720" fill="#F7F4EE"/>
  <rect width="1200" height="720" fill="url(#grid)"/>
  <text x="42" y="45" fill="#716C64" font-family="Inter, ui-sans-serif, system-ui, sans-serif" font-size="11" font-weight="750" text-anchor="start">AI UI STYLE DIRECTION</text>
  <text x="1158" y="45" fill="#B45309" font-family="Inter, ui-sans-serif, system-ui, sans-serif" font-size="11" font-weight="750" text-anchor="end">DRAFT / WIREFRAME</text>
  <text x="42" y="92" fill="#201E1A" font-family="Inter, ui-sans-serif, system-ui, sans-serif" font-size="30" font-weight="780" text-anchor="start">Case Study Narrative</text>
  <text x="42" y="124" fill="#716C64" font-family="Inter, ui-sans-serif, system-ui, sans-serif" font-size="13" font-weight="450" text-anchor="start">Editorial case opening with problem, role, constraints, a flagship artifact, and a clear impact summary.</text>
  <g transform="translate(40 160)">
    <rect x="0" y="0" width="1120" height="520" rx="20" fill="#FFFCF7" stroke="#D9D1C5" />
    <rect x="0" y="0" width="214" height="520" rx="0" fill="#EDE7DD" stroke="#D9D1C5" /><text x="24" y="42" fill="#201E1A" font-family="Inter, ui-sans-serif, system-ui, sans-serif" font-size="12" font-weight="700" text-anchor="start">DOCUMENTATION</text><line x1="26" y1="82" x2="150" y2="82" stroke="#716C64" stroke-width="6" stroke-linecap="round" opacity="0.65"/><line x1="26" y1="120" x2="164" y2="120" stroke="#716C64" stroke-width="6" stroke-linecap="round" opacity="0.65"/><line x1="26" y1="158" x2="178" y2="158" stroke="#B45309" stroke-width="8" stroke-linecap="round" opacity="0.65"/><line x1="26" y1="196" x2="150" y2="196" stroke="#716C64" stroke-width="6" stroke-linecap="round" opacity="0.65"/><line x1="26" y1="234" x2="164" y2="234" stroke="#716C64" stroke-width="6" stroke-linecap="round" opacity="0.65"/><line x1="26" y1="272" x2="178" y2="272" stroke="#716C64" stroke-width="6" stroke-linecap="round" opacity="0.65"/><text x="250" y="56" fill="#201E1A" font-family="Inter, ui-sans-serif, system-ui, sans-serif" font-size="29" font-weight="740" text-anchor="start">Build a consistent interface</text><text x="250" y="88" fill="#716C64" font-family="Inter, ui-sans-serif, system-ui, sans-serif" font-size="13" font-weight="450" text-anchor="start">A readable contract for components, tokens, and behavior.</text><line x1="252" y1="134" x2="640" y2="134" stroke="#716C64" stroke-width="7" stroke-linecap="round" opacity="0.38"/><line x1="252" y1="162" x2="678" y2="162" stroke="#716C64" stroke-width="7" stroke-linecap="round" opacity="0.38"/><line x1="252" y1="190" x2="640" y2="190" stroke="#716C64" stroke-width="7" stroke-linecap="round" opacity="0.38"/><line x1="252" y1="218" x2="678" y2="218" stroke="#716C64" stroke-width="7" stroke-linecap="round" opacity="0.38"/><line x1="252" y1="246" x2="640" y2="246" stroke="#716C64" stroke-width="7" stroke-linecap="round" opacity="0.38"/><text x="250" y="306" fill="#201E1A" font-family="Inter, ui-sans-serif, system-ui, sans-serif" font-size="19" font-weight="700" text-anchor="start">Principles</text><rect x="250" y="332" width="22" height="22" rx="6" fill="#B45309" stroke="#D9D1C5" /><line x1="292" y1="343" x2="628" y2="343" stroke="#716C64" stroke-width="7" stroke-linecap="round" opacity="0.48"/><rect x="250" y="380" width="22" height="22" rx="6" fill="#EDE7DD" stroke="#D9D1C5" /><line x1="292" y1="391" x2="640" y2="391" stroke="#716C64" stroke-width="7" stroke-linecap="round" opacity="0.48"/><rect x="250" y="428" width="22" height="22" rx="6" fill="#EDE7DD" stroke="#D9D1C5" /><line x1="292" y1="439" x2="652" y2="439" stroke="#716C64" stroke-width="7" stroke-linecap="round" opacity="0.48"/><rect x="720" y="38" width="372" height="422" rx="14" fill="#101114" stroke="#D9D1C5" /><text x="744" y="72" fill="#B45309" font-family="Inter, ui-sans-serif, system-ui, sans-serif" font-size="12" font-weight="700" text-anchor="start">DESIGN.md</text><line x1="744" y1="112" x2="910" y2="112" stroke="#B45309" stroke-width="7" stroke-linecap="round"/><line x1="744" y1="148" x2="939" y2="148" stroke="#52525B" stroke-width="7" stroke-linecap="round"/><line x1="744" y1="184" x2="968" y2="184" stroke="#52525B" stroke-width="7" stroke-linecap="round"/><line x1="744" y1="220" x2="997" y2="220" stroke="#B45309" stroke-width="7" stroke-linecap="round"/><line x1="744" y1="256" x2="1026" y2="256" stroke="#52525B" stroke-width="7" stroke-linecap="round"/><line x1="744" y1="292" x2="925" y2="292" stroke="#52525B" stroke-width="7" stroke-linecap="round"/><line x1="744" y1="328" x2="954" y2="328" stroke="#B45309" stroke-width="7" stroke-linecap="round"/><line x1="744" y1="364" x2="983" y2="364" stroke="#52525B" stroke-width="7" stroke-linecap="round"/>
  </g>
</svg>
